<svg xmlns="http://www.w3.org/2000/svg" viewBox="0 0 100 100" width="100" height="100">
  <rect x="14" y="22" width="14" height="6" rx="1" fill="#ff7eb6" transform="rotate(20 21 25)"/>
  <rect x="60" y="14" width="14" height="6" rx="1" fill="#7ed3ff" transform="rotate(-25 67 17)"/>
  <rect x="38" y="40" width="14" height="6" rx="1" fill="#ffd24a" transform="rotate(45 45 43)"/>
  <rect x="70" y="50" width="14" height="6" rx="1" fill="#a880ff" transform="rotate(-15 77 53)"/>
  <rect x="20" y="70" width="14" height="6" rx="1" fill="#7af0a8" transform="rotate(35 27 73)"/>
  <rect x="58" y="80" width="14" height="6" rx="1" fill="#ff9a5a" transform="rotate(-30 65 83)"/>
  <circle cx="50" cy="22" r="3" fill="#ff5f8a"/>
  <circle cx="82" cy="36" r="3" fill="#ffd24a"/>
  <circle cx="14" cy="50" r="3" fill="#7ed3ff"/>
  <circle cx="48" cy="62" r="3" fill="#a880ff"/>
</svg>
